<mxfile host="app.diagrams.net" modified="2022-08-26T14:23:07.167Z" agent="5.0 (Windows NT 10.0; Win64; x64) AppleWebKit/537.36 (KHTML, like Gecko) Chrome/104.0.0.0 Safari/537.36" etag="K3WdvXHtkUb4RixgVNi4" version="20.2.7" type="github">
  <diagram id="zi9SmSm2vzH9jf3Iy3Qq" name="Page-1">
    <mxGraphModel dx="1472" dy="561" grid="1" gridSize="10" guides="1" tooltips="1" connect="1" arrows="1" fold="1" page="1" pageScale="1" pageWidth="1169" pageHeight="1654" math="0" shadow="0">
      <root>
        <mxCell id="0" />
        <mxCell id="1" parent="0" />
        <mxCell id="aC4myqWj9r63JjZcvoJ0-1" value="TeatcherEmployees" style="swimlane;fontStyle=1;align=center;verticalAlign=top;childLayout=stackLayout;horizontal=1;startSize=26;horizontalStack=0;resizeParent=1;resizeParentMax=0;resizeLast=0;collapsible=1;marginBottom=0;" vertex="1" parent="1">
          <mxGeometry x="900" y="403" width="160" height="60" as="geometry" />
        </mxCell>
        <mxCell id="aC4myqWj9r63JjZcvoJ0-3" value="" style="line;strokeWidth=1;fillColor=none;align=left;verticalAlign=middle;spacingTop=-1;spacingLeft=3;spacingRight=3;rotatable=0;labelPosition=right;points=[];portConstraint=eastwest;" vertex="1" parent="aC4myqWj9r63JjZcvoJ0-1">
          <mxGeometry y="26" width="160" height="8" as="geometry" />
        </mxCell>
        <mxCell id="aC4myqWj9r63JjZcvoJ0-4" value="+ method(type): type" style="text;strokeColor=none;fillColor=none;align=left;verticalAlign=top;spacingLeft=4;spacingRight=4;overflow=hidden;rotatable=0;points=[[0,0.5],[1,0.5]];portConstraint=eastwest;" vertex="1" parent="aC4myqWj9r63JjZcvoJ0-1">
          <mxGeometry y="34" width="160" height="26" as="geometry" />
        </mxCell>
        <mxCell id="aC4myqWj9r63JjZcvoJ0-5" value="Teachers" style="swimlane;fontStyle=1;align=center;verticalAlign=top;childLayout=stackLayout;horizontal=1;startSize=26;horizontalStack=0;resizeParent=1;resizeParentMax=0;resizeLast=0;collapsible=1;marginBottom=0;" vertex="1" parent="1">
          <mxGeometry x="670" y="240" width="160" height="78" as="geometry" />
        </mxCell>
        <mxCell id="aC4myqWj9r63JjZcvoJ0-6" value="id : int&#xa;class_id : int" style="text;strokeColor=none;fillColor=none;align=left;verticalAlign=top;spacingLeft=4;spacingRight=4;overflow=hidden;rotatable=0;points=[[0,0.5],[1,0.5]];portConstraint=eastwest;" vertex="1" parent="aC4myqWj9r63JjZcvoJ0-5">
          <mxGeometry y="26" width="160" height="44" as="geometry" />
        </mxCell>
        <mxCell id="aC4myqWj9r63JjZcvoJ0-7" value="" style="line;strokeWidth=1;fillColor=none;align=left;verticalAlign=middle;spacingTop=-1;spacingLeft=3;spacingRight=3;rotatable=0;labelPosition=right;points=[];portConstraint=eastwest;" vertex="1" parent="aC4myqWj9r63JjZcvoJ0-5">
          <mxGeometry y="70" width="160" height="8" as="geometry" />
        </mxCell>
        <mxCell id="aC4myqWj9r63JjZcvoJ0-9" value="Contributors" style="swimlane;fontStyle=1;align=center;verticalAlign=top;childLayout=stackLayout;horizontal=1;startSize=26;horizontalStack=0;resizeParent=1;resizeParentMax=0;resizeLast=0;collapsible=1;marginBottom=0;" vertex="1" parent="1">
          <mxGeometry x="500" y="391" width="160" height="84" as="geometry" />
        </mxCell>
        <mxCell id="aC4myqWj9r63JjZcvoJ0-10" value="presence_at : json " style="text;strokeColor=none;fillColor=none;align=left;verticalAlign=top;spacingLeft=4;spacingRight=4;overflow=hidden;rotatable=0;points=[[0,0.5],[1,0.5]];portConstraint=eastwest;" vertex="1" parent="aC4myqWj9r63JjZcvoJ0-9">
          <mxGeometry y="26" width="160" height="24" as="geometry" />
        </mxCell>
        <mxCell id="aC4myqWj9r63JjZcvoJ0-11" value="" style="line;strokeWidth=1;fillColor=none;align=left;verticalAlign=middle;spacingTop=-1;spacingLeft=3;spacingRight=3;rotatable=0;labelPosition=right;points=[];portConstraint=eastwest;" vertex="1" parent="aC4myqWj9r63JjZcvoJ0-9">
          <mxGeometry y="50" width="160" height="8" as="geometry" />
        </mxCell>
        <mxCell id="aC4myqWj9r63JjZcvoJ0-12" value="+ method(type): type" style="text;strokeColor=none;fillColor=none;align=left;verticalAlign=top;spacingLeft=4;spacingRight=4;overflow=hidden;rotatable=0;points=[[0,0.5],[1,0.5]];portConstraint=eastwest;" vertex="1" parent="aC4myqWj9r63JjZcvoJ0-9">
          <mxGeometry y="58" width="160" height="26" as="geometry" />
        </mxCell>
        <mxCell id="aC4myqWj9r63JjZcvoJ0-13" value="Classes" style="swimlane;fontStyle=1;align=center;verticalAlign=top;childLayout=stackLayout;horizontal=1;startSize=26;horizontalStack=0;resizeParent=1;resizeParentMax=0;resizeLast=0;collapsible=1;marginBottom=0;" vertex="1" parent="1">
          <mxGeometry x="830" y="571" width="160" height="144" as="geometry" />
        </mxCell>
        <mxCell id="aC4myqWj9r63JjZcvoJ0-14" value="id : int&#xa;name: varchar&#xa;start_at : date&#xa;end_at : date&#xa;diplôme : varchar" style="text;strokeColor=none;fillColor=none;align=left;verticalAlign=top;spacingLeft=4;spacingRight=4;overflow=hidden;rotatable=0;points=[[0,0.5],[1,0.5]];portConstraint=eastwest;" vertex="1" parent="aC4myqWj9r63JjZcvoJ0-13">
          <mxGeometry y="26" width="160" height="84" as="geometry" />
        </mxCell>
        <mxCell id="aC4myqWj9r63JjZcvoJ0-15" value="" style="line;strokeWidth=1;fillColor=none;align=left;verticalAlign=middle;spacingTop=-1;spacingLeft=3;spacingRight=3;rotatable=0;labelPosition=right;points=[];portConstraint=eastwest;" vertex="1" parent="aC4myqWj9r63JjZcvoJ0-13">
          <mxGeometry y="110" width="160" height="8" as="geometry" />
        </mxCell>
        <mxCell id="aC4myqWj9r63JjZcvoJ0-16" value="+ method(type): type" style="text;strokeColor=none;fillColor=none;align=left;verticalAlign=top;spacingLeft=4;spacingRight=4;overflow=hidden;rotatable=0;points=[[0,0.5],[1,0.5]];portConstraint=eastwest;" vertex="1" parent="aC4myqWj9r63JjZcvoJ0-13">
          <mxGeometry y="118" width="160" height="26" as="geometry" />
        </mxCell>
        <mxCell id="aC4myqWj9r63JjZcvoJ0-53" style="edgeStyle=orthogonalEdgeStyle;rounded=0;orthogonalLoop=1;jettySize=auto;html=1;entryX=-0.005;entryY=0.791;entryDx=0;entryDy=0;entryPerimeter=0;startArrow=none;exitX=1.04;exitY=0.627;exitDx=0;exitDy=0;exitPerimeter=0;" edge="1" parent="1" source="aC4myqWj9r63JjZcvoJ0-54" target="aC4myqWj9r63JjZcvoJ0-22">
          <mxGeometry relative="1" as="geometry">
            <mxPoint x="390" y="680.7999877929688" as="targetPoint" />
            <Array as="points">
              <mxPoint x="400" y="689" />
              <mxPoint x="400" y="708" />
            </Array>
          </mxGeometry>
        </mxCell>
        <mxCell id="aC4myqWj9r63JjZcvoJ0-17" value="Secretary" style="swimlane;fontStyle=1;align=center;verticalAlign=top;childLayout=stackLayout;horizontal=1;startSize=26;horizontalStack=0;resizeParent=1;resizeParentMax=0;resizeLast=0;collapsible=1;marginBottom=0;" vertex="1" parent="1">
          <mxGeometry x="240" y="250" width="160" height="86" as="geometry" />
        </mxCell>
        <mxCell id="aC4myqWj9r63JjZcvoJ0-18" value="+ field: type" style="text;strokeColor=none;fillColor=none;align=left;verticalAlign=top;spacingLeft=4;spacingRight=4;overflow=hidden;rotatable=0;points=[[0,0.5],[1,0.5]];portConstraint=eastwest;" vertex="1" parent="aC4myqWj9r63JjZcvoJ0-17">
          <mxGeometry y="26" width="160" height="26" as="geometry" />
        </mxCell>
        <mxCell id="aC4myqWj9r63JjZcvoJ0-19" value="" style="line;strokeWidth=1;fillColor=none;align=left;verticalAlign=middle;spacingTop=-1;spacingLeft=3;spacingRight=3;rotatable=0;labelPosition=right;points=[];portConstraint=eastwest;" vertex="1" parent="aC4myqWj9r63JjZcvoJ0-17">
          <mxGeometry y="52" width="160" height="8" as="geometry" />
        </mxCell>
        <mxCell id="aC4myqWj9r63JjZcvoJ0-20" value="CreateReunion()" style="text;strokeColor=none;fillColor=none;align=left;verticalAlign=top;spacingLeft=4;spacingRight=4;overflow=hidden;rotatable=0;points=[[0,0.5],[1,0.5]];portConstraint=eastwest;" vertex="1" parent="aC4myqWj9r63JjZcvoJ0-17">
          <mxGeometry y="60" width="160" height="26" as="geometry" />
        </mxCell>
        <mxCell id="aC4myqWj9r63JjZcvoJ0-21" value="Abstract Students" style="swimlane;fontStyle=1;align=center;verticalAlign=top;childLayout=stackLayout;horizontal=1;startSize=30;horizontalStack=0;resizeParent=1;resizeParentMax=0;resizeLast=0;collapsible=1;marginBottom=0;" vertex="1" parent="1">
          <mxGeometry x="500" y="591" width="160" height="210" as="geometry" />
        </mxCell>
        <mxCell id="aC4myqWj9r63JjZcvoJ0-22" value="id: int&#xa;first_name : varchar&#xa;last_name : varchar&#xa;enterprise : varchar&#xa;status : varchar&#xa;email : varchar&#xa;phone : varchar&#xa;class_id : int" style="text;strokeColor=none;fillColor=none;align=left;verticalAlign=top;spacingLeft=4;spacingRight=4;overflow=hidden;rotatable=0;points=[[0,0.5],[1,0.5]];portConstraint=eastwest;" vertex="1" parent="aC4myqWj9r63JjZcvoJ0-21">
          <mxGeometry y="30" width="160" height="120" as="geometry" />
        </mxCell>
        <mxCell id="aC4myqWj9r63JjZcvoJ0-23" value="" style="line;strokeWidth=1;fillColor=none;align=left;verticalAlign=middle;spacingTop=-1;spacingLeft=3;spacingRight=3;rotatable=0;labelPosition=right;points=[];portConstraint=eastwest;" vertex="1" parent="aC4myqWj9r63JjZcvoJ0-21">
          <mxGeometry y="150" width="160" height="10" as="geometry" />
        </mxCell>
        <mxCell id="aC4myqWj9r63JjZcvoJ0-24" value="AddnewStudent()&#xa;ChangeStatus()&#xa;SendMessage()" style="text;strokeColor=none;fillColor=none;align=left;verticalAlign=top;spacingLeft=4;spacingRight=4;overflow=hidden;rotatable=0;points=[[0,0.5],[1,0.5]];portConstraint=eastwest;" vertex="1" parent="aC4myqWj9r63JjZcvoJ0-21">
          <mxGeometry y="160" width="160" height="50" as="geometry" />
        </mxCell>
        <mxCell id="aC4myqWj9r63JjZcvoJ0-25" style="edgeStyle=orthogonalEdgeStyle;rounded=0;orthogonalLoop=1;jettySize=auto;html=1;exitX=0.01;exitY=0.693;exitDx=0;exitDy=0;entryX=0.995;entryY=0.295;entryDx=0;entryDy=0;entryPerimeter=0;startArrow=none;exitPerimeter=0;" edge="1" parent="1" source="aC4myqWj9r63JjZcvoJ0-26" target="aC4myqWj9r63JjZcvoJ0-22">
          <mxGeometry relative="1" as="geometry">
            <Array as="points">
              <mxPoint x="710" y="726" />
              <mxPoint x="710" y="654" />
            </Array>
          </mxGeometry>
        </mxCell>
        <mxCell id="aC4myqWj9r63JjZcvoJ0-26" value="Has" style="text;html=1;align=center;verticalAlign=middle;resizable=0;points=[];autosize=1;strokeColor=none;fillColor=none;" vertex="1" parent="1">
          <mxGeometry x="730" y="705" width="40" height="30" as="geometry" />
        </mxCell>
        <mxCell id="aC4myqWj9r63JjZcvoJ0-27" value="" style="edgeStyle=orthogonalEdgeStyle;rounded=0;orthogonalLoop=1;jettySize=auto;html=1;exitX=0;exitY=0.5;exitDx=0;exitDy=0;entryX=0.995;entryY=0.295;entryDx=0;entryDy=0;entryPerimeter=0;endArrow=none;" edge="1" parent="1" source="aC4myqWj9r63JjZcvoJ0-14" target="aC4myqWj9r63JjZcvoJ0-26">
          <mxGeometry relative="1" as="geometry">
            <mxPoint x="830" y="639" as="sourcePoint" />
            <mxPoint x="529.2" y="643.45" as="targetPoint" />
          </mxGeometry>
        </mxCell>
        <mxCell id="aC4myqWj9r63JjZcvoJ0-28" value="Extends" style="endArrow=block;endSize=16;endFill=0;html=1;rounded=0;exitX=0.205;exitY=-0.019;exitDx=0;exitDy=0;exitPerimeter=0;entryX=0.605;entryY=0.675;entryDx=0;entryDy=0;entryPerimeter=0;" edge="1" parent="1" source="aC4myqWj9r63JjZcvoJ0-1" target="aC4myqWj9r63JjZcvoJ0-7">
          <mxGeometry width="160" relative="1" as="geometry">
            <mxPoint x="500" y="561" as="sourcePoint" />
            <mxPoint x="332" y="467.39" as="targetPoint" />
          </mxGeometry>
        </mxCell>
        <mxCell id="aC4myqWj9r63JjZcvoJ0-29" value="Extends" style="endArrow=block;endSize=16;endFill=0;html=1;rounded=0;exitX=0.563;exitY=0.014;exitDx=0;exitDy=0;exitPerimeter=0;entryX=0.25;entryY=1;entryDx=0;entryDy=0;" edge="1" parent="1" source="aC4myqWj9r63JjZcvoJ0-9" target="aC4myqWj9r63JjZcvoJ0-5">
          <mxGeometry width="160" relative="1" as="geometry">
            <mxPoint x="500" y="561" as="sourcePoint" />
            <mxPoint x="283.20000000000005" y="469.808" as="targetPoint" />
          </mxGeometry>
        </mxCell>
        <mxCell id="aC4myqWj9r63JjZcvoJ0-33" style="edgeStyle=orthogonalEdgeStyle;rounded=0;orthogonalLoop=1;jettySize=auto;html=1;entryX=-0.022;entryY=0.324;entryDx=0;entryDy=0;entryPerimeter=0;startArrow=none;exitX=0.56;exitY=1.2;exitDx=0;exitDy=0;exitPerimeter=0;" edge="1" parent="1" source="aC4myqWj9r63JjZcvoJ0-34" target="aC4myqWj9r63JjZcvoJ0-14">
          <mxGeometry relative="1" as="geometry">
            <Array as="points">
              <mxPoint x="753" y="624" />
            </Array>
          </mxGeometry>
        </mxCell>
        <mxCell id="aC4myqWj9r63JjZcvoJ0-34" value="Make" style="text;html=1;align=center;verticalAlign=middle;resizable=0;points=[];autosize=1;strokeColor=none;fillColor=none;" vertex="1" parent="1">
          <mxGeometry x="725" y="500" width="50" height="30" as="geometry" />
        </mxCell>
        <mxCell id="aC4myqWj9r63JjZcvoJ0-35" value="" style="edgeStyle=orthogonalEdgeStyle;rounded=0;orthogonalLoop=1;jettySize=auto;html=1;endArrow=none;exitX=0.5;exitY=1;exitDx=0;exitDy=0;" edge="1" parent="1" source="aC4myqWj9r63JjZcvoJ0-5" target="aC4myqWj9r63JjZcvoJ0-34">
          <mxGeometry relative="1" as="geometry">
            <mxPoint x="400" y="420" as="sourcePoint" />
            <mxPoint x="826.48" y="624.216" as="targetPoint" />
            <Array as="points">
              <mxPoint x="750" y="486" />
            </Array>
          </mxGeometry>
        </mxCell>
        <mxCell id="aC4myqWj9r63JjZcvoJ0-43" value="Abstract Personal" style="swimlane;fontStyle=1;align=center;verticalAlign=top;childLayout=stackLayout;horizontal=1;startSize=26;horizontalStack=0;resizeParent=1;resizeParentMax=0;resizeLast=0;collapsible=1;marginBottom=0;" vertex="1" parent="1">
          <mxGeometry x="440" y="50" width="160" height="168" as="geometry" />
        </mxCell>
        <mxCell id="aC4myqWj9r63JjZcvoJ0-44" value="id : int&#xa;post : json&#xa;first_name: varchar&#xa;last_name : varchar&#xa;email : varchar&#xa;salary : decimal" style="text;strokeColor=none;fillColor=none;align=left;verticalAlign=top;spacingLeft=4;spacingRight=4;overflow=hidden;rotatable=0;points=[[0,0.5],[1,0.5]];portConstraint=eastwest;" vertex="1" parent="aC4myqWj9r63JjZcvoJ0-43">
          <mxGeometry y="26" width="160" height="94" as="geometry" />
        </mxCell>
        <mxCell id="aC4myqWj9r63JjZcvoJ0-45" value="" style="line;strokeWidth=1;fillColor=none;align=left;verticalAlign=middle;spacingTop=-1;spacingLeft=3;spacingRight=3;rotatable=0;labelPosition=right;points=[];portConstraint=eastwest;" vertex="1" parent="aC4myqWj9r63JjZcvoJ0-43">
          <mxGeometry y="120" width="160" height="8" as="geometry" />
        </mxCell>
        <mxCell id="aC4myqWj9r63JjZcvoJ0-46" value="sendPayment()&#xa;sendMessage()" style="text;strokeColor=none;fillColor=none;align=left;verticalAlign=top;spacingLeft=4;spacingRight=4;overflow=hidden;rotatable=0;points=[[0,0.5],[1,0.5]];portConstraint=eastwest;" vertex="1" parent="aC4myqWj9r63JjZcvoJ0-43">
          <mxGeometry y="128" width="160" height="40" as="geometry" />
        </mxCell>
        <mxCell id="aC4myqWj9r63JjZcvoJ0-48" value="Extends" style="endArrow=block;endSize=16;endFill=0;html=1;rounded=0;exitX=0.5;exitY=0;exitDx=0;exitDy=0;entryX=1;entryY=0.5;entryDx=0;entryDy=0;" edge="1" parent="1" source="aC4myqWj9r63JjZcvoJ0-5" target="aC4myqWj9r63JjZcvoJ0-44">
          <mxGeometry width="160" relative="1" as="geometry">
            <mxPoint x="170.07999999999993" y="566.596" as="sourcePoint" />
            <mxPoint x="293.20000000000005" y="479.808" as="targetPoint" />
            <Array as="points">
              <mxPoint x="700" y="180" />
            </Array>
          </mxGeometry>
        </mxCell>
        <mxCell id="aC4myqWj9r63JjZcvoJ0-49" value="Extends" style="endArrow=block;endSize=16;endFill=0;html=1;rounded=0;exitX=0.5;exitY=0;exitDx=0;exitDy=0;entryX=0;entryY=0.5;entryDx=0;entryDy=0;" edge="1" parent="1" source="aC4myqWj9r63JjZcvoJ0-17" target="aC4myqWj9r63JjZcvoJ0-44">
          <mxGeometry width="160" relative="1" as="geometry">
            <mxPoint x="180.07999999999993" y="495.596" as="sourcePoint" />
            <mxPoint x="303.20000000000005" y="408.808" as="targetPoint" />
            <Array as="points">
              <mxPoint x="380" y="180" />
            </Array>
          </mxGeometry>
        </mxCell>
        <mxCell id="aC4myqWj9r63JjZcvoJ0-50" style="edgeStyle=orthogonalEdgeStyle;rounded=0;orthogonalLoop=1;jettySize=auto;html=1;exitX=1;exitY=0.5;exitDx=0;exitDy=0;entryX=0;entryY=0.314;entryDx=0;entryDy=0;entryPerimeter=0;startArrow=none;" edge="1" parent="1" source="aC4myqWj9r63JjZcvoJ0-51" target="aC4myqWj9r63JjZcvoJ0-6">
          <mxGeometry relative="1" as="geometry" />
        </mxCell>
        <mxCell id="aC4myqWj9r63JjZcvoJ0-51" value="Talk" style="text;html=1;align=center;verticalAlign=middle;resizable=0;points=[];autosize=1;strokeColor=none;fillColor=none;" vertex="1" parent="1">
          <mxGeometry x="500" y="278" width="40" height="30" as="geometry" />
        </mxCell>
        <mxCell id="aC4myqWj9r63JjZcvoJ0-52" value="" style="edgeStyle=orthogonalEdgeStyle;rounded=0;orthogonalLoop=1;jettySize=auto;html=1;exitX=1;exitY=0.5;exitDx=0;exitDy=0;entryX=0;entryY=0.314;entryDx=0;entryDy=0;entryPerimeter=0;endArrow=none;" edge="1" parent="1" source="aC4myqWj9r63JjZcvoJ0-18" target="aC4myqWj9r63JjZcvoJ0-51">
          <mxGeometry relative="1" as="geometry">
            <mxPoint x="190" y="420" as="sourcePoint" />
            <mxPoint x="240" y="420.81600000000003" as="targetPoint" />
            <Array as="points">
              <mxPoint x="460" y="289" />
              <mxPoint x="460" y="290" />
              <mxPoint x="500" y="290" />
            </Array>
          </mxGeometry>
        </mxCell>
        <mxCell id="aC4myqWj9r63JjZcvoJ0-54" value="Talk" style="text;html=1;align=center;verticalAlign=middle;resizable=0;points=[];autosize=1;strokeColor=none;fillColor=none;" vertex="1" parent="1">
          <mxGeometry x="330" y="670" width="40" height="30" as="geometry" />
        </mxCell>
        <mxCell id="aC4myqWj9r63JjZcvoJ0-55" value="" style="edgeStyle=orthogonalEdgeStyle;rounded=0;orthogonalLoop=1;jettySize=auto;html=1;entryX=-0.005;entryY=0.791;entryDx=0;entryDy=0;entryPerimeter=0;endArrow=none;" edge="1" parent="1" source="aC4myqWj9r63JjZcvoJ0-17" target="aC4myqWj9r63JjZcvoJ0-54">
          <mxGeometry relative="1" as="geometry">
            <mxPoint x="499.20000000000005" y="708.01" as="targetPoint" />
            <mxPoint x="40" y="467" as="sourcePoint" />
            <Array as="points">
              <mxPoint x="320" y="650" />
              <mxPoint x="320" y="650" />
            </Array>
          </mxGeometry>
        </mxCell>
        <mxCell id="aC4myqWj9r63JjZcvoJ0-56" value="Presentiel" style="swimlane;fontStyle=1;align=center;verticalAlign=top;childLayout=stackLayout;horizontal=1;startSize=26;horizontalStack=0;resizeParent=1;resizeParentMax=0;resizeLast=0;collapsible=1;marginBottom=0;" vertex="1" parent="1">
          <mxGeometry x="740" y="870" width="160" height="86" as="geometry" />
        </mxCell>
        <mxCell id="aC4myqWj9r63JjZcvoJ0-57" value="+ field: type" style="text;strokeColor=none;fillColor=none;align=left;verticalAlign=top;spacingLeft=4;spacingRight=4;overflow=hidden;rotatable=0;points=[[0,0.5],[1,0.5]];portConstraint=eastwest;" vertex="1" parent="aC4myqWj9r63JjZcvoJ0-56">
          <mxGeometry y="26" width="160" height="26" as="geometry" />
        </mxCell>
        <mxCell id="aC4myqWj9r63JjZcvoJ0-58" value="" style="line;strokeWidth=1;fillColor=none;align=left;verticalAlign=middle;spacingTop=-1;spacingLeft=3;spacingRight=3;rotatable=0;labelPosition=right;points=[];portConstraint=eastwest;" vertex="1" parent="aC4myqWj9r63JjZcvoJ0-56">
          <mxGeometry y="52" width="160" height="8" as="geometry" />
        </mxCell>
        <mxCell id="aC4myqWj9r63JjZcvoJ0-59" value="+ method(type): type" style="text;strokeColor=none;fillColor=none;align=left;verticalAlign=top;spacingLeft=4;spacingRight=4;overflow=hidden;rotatable=0;points=[[0,0.5],[1,0.5]];portConstraint=eastwest;" vertex="1" parent="aC4myqWj9r63JjZcvoJ0-56">
          <mxGeometry y="60" width="160" height="26" as="geometry" />
        </mxCell>
        <mxCell id="aC4myqWj9r63JjZcvoJ0-64" value="Distanciel" style="swimlane;fontStyle=1;align=center;verticalAlign=top;childLayout=stackLayout;horizontal=1;startSize=26;horizontalStack=0;resizeParent=1;resizeParentMax=0;resizeLast=0;collapsible=1;marginBottom=0;" vertex="1" parent="1">
          <mxGeometry x="390" y="870" width="160" height="86" as="geometry" />
        </mxCell>
        <mxCell id="aC4myqWj9r63JjZcvoJ0-65" value="+ field: type" style="text;strokeColor=none;fillColor=none;align=left;verticalAlign=top;spacingLeft=4;spacingRight=4;overflow=hidden;rotatable=0;points=[[0,0.5],[1,0.5]];portConstraint=eastwest;" vertex="1" parent="aC4myqWj9r63JjZcvoJ0-64">
          <mxGeometry y="26" width="160" height="26" as="geometry" />
        </mxCell>
        <mxCell id="aC4myqWj9r63JjZcvoJ0-66" value="" style="line;strokeWidth=1;fillColor=none;align=left;verticalAlign=middle;spacingTop=-1;spacingLeft=3;spacingRight=3;rotatable=0;labelPosition=right;points=[];portConstraint=eastwest;" vertex="1" parent="aC4myqWj9r63JjZcvoJ0-64">
          <mxGeometry y="52" width="160" height="8" as="geometry" />
        </mxCell>
        <mxCell id="aC4myqWj9r63JjZcvoJ0-67" value="+ method(type): type" style="text;strokeColor=none;fillColor=none;align=left;verticalAlign=top;spacingLeft=4;spacingRight=4;overflow=hidden;rotatable=0;points=[[0,0.5],[1,0.5]];portConstraint=eastwest;" vertex="1" parent="aC4myqWj9r63JjZcvoJ0-64">
          <mxGeometry y="60" width="160" height="26" as="geometry" />
        </mxCell>
        <mxCell id="aC4myqWj9r63JjZcvoJ0-69" value="Extends" style="endArrow=block;endSize=16;endFill=0;html=1;rounded=0;exitX=0.643;exitY=0;exitDx=0;exitDy=0;exitPerimeter=0;entryX=0.23;entryY=1.036;entryDx=0;entryDy=0;entryPerimeter=0;" edge="1" parent="1" source="aC4myqWj9r63JjZcvoJ0-64" target="aC4myqWj9r63JjZcvoJ0-24">
          <mxGeometry width="160" relative="1" as="geometry">
            <mxPoint x="500" y="890" as="sourcePoint" />
            <mxPoint x="660" y="890" as="targetPoint" />
          </mxGeometry>
        </mxCell>
        <mxCell id="aC4myqWj9r63JjZcvoJ0-70" value="Extends" style="endArrow=block;endSize=16;endFill=0;html=1;rounded=0;exitX=0.3;exitY=0;exitDx=0;exitDy=0;exitPerimeter=0;entryX=0.45;entryY=1.036;entryDx=0;entryDy=0;entryPerimeter=0;" edge="1" parent="1" source="aC4myqWj9r63JjZcvoJ0-56" target="aC4myqWj9r63JjZcvoJ0-24">
          <mxGeometry width="160" relative="1" as="geometry">
            <mxPoint x="502.8800000000001" y="880" as="sourcePoint" />
            <mxPoint x="546.8" y="812.8" as="targetPoint" />
          </mxGeometry>
        </mxCell>
      </root>
    </mxGraphModel>
  </diagram>
</mxfile>
